<svg width="16" height="13" viewBox="0 0 16 13" fill="none" xmlns="http://www.w3.org/2000/svg">
<g clip-path="url(#clip0_436_67)">
<path d="M0 0H0.473435C5.4687 0 10.4633 0 15.4571 0C15.6318 0 15.9411 0.0577449 15.9537 0.129925C15.9895 0.425169 15.9895 0.723523 15.9537 1.01877C15.9537 1.04558 15.8527 1.0827 15.7959 1.08888C15.681 1.09508 15.5658 1.09508 15.4508 1.08888H0.540769C1.55518e-06 1.08888 0 1.08888 0 0.57125V0Z" fill="#9C1210"/>
<path d="M0.0147095 6.68798V5.64447H15.9874C15.9874 5.93319 16 6.22603 15.9874 6.51888C15.9874 6.57868 15.8695 6.66942 15.7959 6.6818C15.6432 6.69419 15.4898 6.69419 15.3372 6.6818H0.0147095V6.68798Z" fill="#9C1210"/>
<path d="M0.0147095 12.3077V11.2765C0.128334 11.2765 0.235647 11.2559 0.345063 11.2559C5.43712 11.2559 10.5299 11.2559 15.6233 11.2559C15.9011 11.2559 16.0252 11.3157 15.9979 11.6065C15.9768 11.8272 15.9979 12.052 15.9979 12.3056L0.0147095 12.3077Z" fill="#9C1210"/>
</g>
<defs>
<clipPath id="clip0_436_67">
<rect width="16" height="12.3077" fill="white"/>
</clipPath>
</defs>
</svg>
